<?xml version="1.0" encoding="utf-8"?>
<!-- Generator: Adobe Illustrator 24.0.2, SVG Export Plug-In . SVG Version: 6.00 Build 0)  -->
<svg version="1.1" id="Layer_1" xmlns="http://www.w3.org/2000/svg" xmlns:xlink="http://www.w3.org/1999/xlink" x="0px" y="0px"
	 viewBox="0 0 92.88 44.67" style="enable-background:new 0 0 92.88 44.67;" xml:space="preserve">
<style type="text/css">
	.st0{stroke:#FFFFFF;stroke-miterlimit:10;}
	.st1{fill:#FFFFFF;stroke:#FFFFFF;stroke-miterlimit:10;}
	.st2{fill:#FFFFFF;}
</style>
<g>
	<path class="st0" d="M49.18,17.3c-0.05,0-0.11-0.01-0.16-0.04c-0.53-0.27-0.86-0.68-0.97-1.2c-0.23-1.12,0.67-2.32,1.06-2.78
		c0.13-0.15,0.35-0.17,0.5-0.04c0.15,0.13,0.17,0.35,0.04,0.5c-0.67,0.79-1.02,1.62-0.9,2.18c0.06,0.3,0.25,0.53,0.59,0.7
		c0.17,0.09,0.25,0.3,0.16,0.48C49.43,17.22,49.31,17.3,49.18,17.3z"/>
</g>
<g>
	<path class="st0" d="M48.15,15.74c-0.44,0-0.89-0.27-1.28-0.77c-0.71-0.92-1.11-2.49-0.44-3.61c0.1-0.17,0.32-0.22,0.49-0.12
		c0.17,0.1,0.22,0.32,0.12,0.49c-0.48,0.81-0.17,2.09,0.4,2.81c0.29,0.37,0.6,0.55,0.83,0.48c0.19-0.06,0.38,0.05,0.44,0.24
		c0.06,0.19-0.05,0.38-0.24,0.44C48.36,15.73,48.26,15.74,48.15,15.74z"/>
</g>
<g>
	<path class="st0" d="M46.86,14.67c-0.14,0-0.28-0.09-0.33-0.23c-0.05-0.13-0.36-0.51-0.82-0.66c-0.34-0.11-0.67-0.05-0.98,0.16
		c-0.16,0.11-0.38,0.06-0.49-0.1c-0.11-0.16-0.06-0.38,0.1-0.49c0.5-0.33,1.04-0.41,1.59-0.24c0.61,0.19,1.12,0.7,1.27,1.07
		c0.07,0.18-0.02,0.39-0.2,0.46C46.95,14.66,46.91,14.67,46.86,14.67z"/>
</g>
<g>
	<path class="st0" d="M66.06,17.72c-0.09,0-0.17-0.03-0.24-0.09c-0.14-0.13-0.15-0.36-0.02-0.5c0.26-0.28,0.36-0.6,0.3-0.95
		c-0.07-0.48-0.4-0.84-0.52-0.91c-0.17-0.1-0.23-0.31-0.13-0.48c0.1-0.17,0.31-0.23,0.48-0.13c0.35,0.2,0.77,0.79,0.87,1.42
		c0.09,0.56-0.08,1.09-0.48,1.53C66.25,17.68,66.16,17.72,66.06,17.72z"/>
</g>
<g>
	<path class="st0" d="M59.38,11.69c-0.36,0-0.71-0.08-1.05-0.23c-1.13-0.51-1.49-1.9-1.45-2.93c0.06-1.67,1.33-2.99,2.46-4.15
		c0.42-0.43,0.81-0.84,1.13-1.25c0.65-0.84,1.17-1.55,1.61-2.23c0.07-0.11,0.2-0.17,0.34-0.16c0.13,0.02,0.25,0.1,0.29,0.23
		c0.09,0.24,0.16,0.48,0.22,0.68c0.58,1.9,1.09,4.12,0.48,6.21c-0.37,1.28-1.47,2.92-2.85,3.55C60.16,11.6,59.77,11.69,59.38,11.69z
		 M62.26,1.9c-0.36,0.52-0.76,1.06-1.24,1.67c-0.34,0.44-0.75,0.86-1.18,1.3c-1.08,1.12-2.2,2.29-2.26,3.68
		c-0.02,0.65,0.17,1.86,1.04,2.25c0.52,0.23,1.07,0.22,1.63-0.04c1.17-0.54,2.15-2.01,2.47-3.11C63.28,5.78,62.8,3.69,62.26,1.9z"/>
</g>
<g>
	<path class="st0" d="M35,27.86c-0.06,0-0.13-0.02-0.19-0.05c-0.17-0.1-0.22-0.32-0.11-0.49c2.58-4.12,5.03-6.56,8.47-8.42
		c3.63-1.96,8.08-2.85,12.39-3.7c5.3-1.05,10.3-2.05,12.95-4.92c0.13-0.14,0.36-0.15,0.5-0.02c0.14,0.13,0.15,0.36,0.02,0.5
		c-2.81,3.04-7.92,4.06-13.33,5.13c-4.26,0.85-8.66,1.72-12.19,3.63c-3.32,1.79-5.7,4.16-8.21,8.17C35.23,27.8,35.12,27.86,35,27.86
		z"/>
</g>
<g>
	<path class="st0" d="M57.95,15.45c-0.01,0-0.01,0-0.02,0c-0.2-0.01-0.34-0.18-0.33-0.37c0.2-3.5,0.74-6.2,2.74-8
		c0.15-0.13,0.37-0.12,0.5,0.03c0.13,0.15,0.12,0.37-0.03,0.5c-1.83,1.64-2.32,4.18-2.51,7.51C58.29,15.3,58.14,15.45,57.95,15.45z"
		/>
</g>
<g>
	<path class="st0" d="M60.3,21.36c-0.02,0-0.03,0-0.05,0c-2.67-0.38-4.62-2.32-6.72-5.13c-0.12-0.16-0.09-0.38,0.07-0.5
		c0.16-0.12,0.38-0.09,0.5,0.07c2,2.66,3.83,4.5,6.26,4.85c0.19,0.03,0.33,0.21,0.3,0.4C60.62,21.24,60.47,21.36,60.3,21.36z"/>
</g>
<g>
	<path class="st0" d="M61.07,22.66c-1.26,0-2.87-0.18-3.67-0.93c-0.38-0.36-0.56-0.82-0.51-1.34c0.09-1.03,0.98-1.65,2.45-1.69
		c0.72-0.02,1.49,0.12,2.37,0.44l0,0c0.82,0.3,1.62,0.7,2.4,1.09c0.52,0.26,1.01,0.51,1.49,0.71c0.11,0.05,0.19,0.15,0.21,0.27
		c0.02,0.12-0.02,0.24-0.11,0.32c-0.73,0.65-2.8,0.99-3.04,1.02C62.36,22.61,61.77,22.66,61.07,22.66z M59.47,19.41
		c-0.04,0-0.08,0-0.12,0c-0.63,0.02-1.7,0.18-1.77,1.05c-0.03,0.31,0.07,0.55,0.29,0.76c0.96,0.9,3.75,0.79,4.66,0.65c0,0,0,0,0,0
		c0.61-0.1,1.52-0.3,2.14-0.55c-0.29-0.14-0.59-0.29-0.89-0.44c-0.76-0.38-1.54-0.78-2.32-1.06l0,0
		C60.72,19.54,60.07,19.41,59.47,19.41z"/>
</g>
<g>
	<path class="st0" d="M48.45,25.49c-0.02,0-0.03,0-0.05,0c-2.67-0.38-4.62-2.32-6.72-5.13c-0.12-0.16-0.09-0.38,0.07-0.5
		c0.16-0.12,0.38-0.09,0.5,0.07c2,2.66,3.83,4.5,6.26,4.85c0.19,0.03,0.33,0.21,0.3,0.4C48.77,25.36,48.62,25.49,48.45,25.49z"/>
</g>
<g>
	<path class="st0" d="M51.73,27.68c-1.8,0-5.6-0.3-7.07-1.93c-0.5-0.56-0.69-1.22-0.56-1.96c0.26-1.46,1.64-2.23,3.79-2.11
		c1.07,0.06,2.22,0.38,3.5,0.97c1.21,0.56,2.38,1.28,3.51,1.98c0.76,0.47,1.49,0.92,2.19,1.3c0.11,0.06,0.18,0.17,0.19,0.29
		c0.01,0.12-0.04,0.24-0.14,0.31c-1.16,0.87-4.34,1.1-4.69,1.12C52.27,27.67,52.03,27.68,51.73,27.68z M47.45,22.38
		c-1.03,0-2.43,0.25-2.65,1.53c-0.09,0.52,0.04,0.97,0.39,1.36c1.4,1.56,5.77,1.78,7.21,1.68c0.77-0.05,2.69-0.27,3.79-0.71
		c-0.54-0.31-1.09-0.65-1.66-1c-1.11-0.69-2.26-1.4-3.43-1.94l0,0c-1.2-0.55-2.26-0.85-3.24-0.91
		C47.72,22.39,47.59,22.38,47.45,22.38z"/>
</g>
<g>
	<path class="st0" d="M38.16,23.47c-0.16,0-0.31-0.11-0.34-0.27c-0.82-3.41-1.08-6.15,0.33-8.45c0.1-0.17,0.32-0.22,0.49-0.12
		c0.17,0.1,0.22,0.32,0.12,0.49c-1.28,2.09-1.02,4.68-0.25,7.91c0.05,0.19-0.07,0.38-0.26,0.43C38.21,23.46,38.19,23.47,38.16,23.47
		z"/>
</g>
<g>
	<g>
		<path class="st1" d="M68.8,10.2c-0.89,0.09-1.28-1.43-0.87-3.4s2.36-3.74,2.36-3.74s1.28,1.43,0.87,3.4
			C70.75,8.44,69.69,10.11,68.8,10.2z"/>
		<path class="st0" d="M68.72,10.56c-0.3,0-0.56-0.12-0.78-0.36c-0.54-0.6-0.68-1.93-0.36-3.47c0.43-2.06,2.39-3.86,2.47-3.93
			l0.26-0.24l0.24,0.26c0.06,0.06,1.4,1.59,0.95,3.71c-0.39,1.85-1.46,3.89-2.67,4.02l0,0C68.8,10.56,68.76,10.56,68.72,10.56z
			 M70.25,3.6c-0.54,0.56-1.68,1.88-1.97,3.27c-0.31,1.47-0.11,2.51,0.19,2.85c0.11,0.13,0.22,0.13,0.29,0.12l0,0
			c0.64-0.07,1.65-1.51,2.05-3.46C71.08,5.12,70.57,4.09,70.25,3.6z"/>
	</g>
	<g>
		<path class="st1" d="M69.06,10.49c-0.18,0.88,1.29,1.42,3.3,1.21c2-0.21,3.96-1.97,3.96-1.97s-1.29-1.42-3.3-1.21
			S69.24,9.61,69.06,10.49z"/>
		<path class="st0" d="M71.52,12.1c-1.17,0-2.11-0.27-2.55-0.76c-0.24-0.27-0.33-0.59-0.26-0.92c0.25-1.2,2.39-2.06,4.27-2.25
			c2.16-0.23,3.54,1.26,3.6,1.33l0.24,0.26l-0.26,0.24c-0.08,0.08-2.07,1.84-4.16,2.06C72.09,12.08,71.8,12.1,71.52,12.1z
			 M73.41,8.85c-0.12,0-0.24,0.01-0.36,0.02c-1.99,0.21-3.52,1.06-3.65,1.69l0,0c-0.02,0.08-0.02,0.18,0.09,0.3
			c0.31,0.34,1.32,0.64,2.82,0.48c1.42-0.15,2.85-1.16,3.46-1.63C75.36,9.38,74.52,8.85,73.41,8.85z"/>
	</g>
	<g>
		<path class="st1" d="M68.8,10.2c-0.5-0.56,0.48-2.26,2.18-3.8c1.71-1.54,4-1.79,4-1.79s-0.48,2.26-2.18,3.8S69.3,10.76,68.8,10.2z
			"/>
		<path class="st0" d="M69.28,10.73c-0.31,0-0.56-0.09-0.74-0.29l0,0c-0.75-0.83,0.54-2.79,2.21-4.3c1.77-1.6,4.1-1.87,4.2-1.88
			l0.49-0.05l-0.1,0.48c-0.02,0.1-0.52,2.39-2.29,3.99C71.77,9.82,70.26,10.73,69.28,10.73z M69.06,9.97
			c0.24,0.26,1.75-0.23,3.5-1.81c1.12-1.01,1.68-2.36,1.93-3.09c-0.75,0.17-2.15,0.59-3.27,1.6C69.47,8.25,68.83,9.7,69.06,9.97
			L69.06,9.97z"/>
	</g>
	<g>
		
			<ellipse transform="matrix(0.742 -0.6704 0.6704 0.742 11.0455 48.9656)" class="st1" cx="69.14" cy="10.13" rx="0.67" ry="1.96"/>
		<path class="st0" d="M70.25,12.01c-0.18,0-0.41-0.06-0.7-0.22c-0.38-0.21-0.79-0.55-1.17-0.97c-0.77-0.85-1.31-1.93-0.79-2.4
			c0.53-0.48,1.54,0.17,2.31,1.03c0.77,0.85,1.31,1.93,0.79,2.4l0,0C70.6,11.93,70.45,12.01,70.25,12.01z M68.09,8.97
			c0.02,0.2,0.23,0.73,0.81,1.37c0.58,0.64,1.08,0.91,1.29,0.95c-0.02-0.2-0.23-0.73-0.81-1.37C68.8,9.28,68.29,9.01,68.09,8.97z"/>
	</g>
</g>
<g>
	<path class="st0" d="M49.97,13.89c-0.21,0-0.42-0.06-0.61-0.17c-0.28-0.16-0.49-0.43-0.57-0.75l0,0c-0.08-0.32-0.04-0.65,0.12-0.93
		c0.16-0.28,0.43-0.49,0.75-0.57c0.32-0.08,0.65-0.04,0.93,0.12c0.28,0.16,0.49,0.43,0.57,0.75c0.08,0.32,0.04,0.65-0.12,0.93
		c-0.16,0.28-0.43,0.49-0.75,0.57C50.18,13.88,50.07,13.89,49.97,13.89z M49.97,12.14c-0.04,0-0.09,0.01-0.13,0.02
		c-0.13,0.04-0.25,0.12-0.32,0.24s-0.09,0.26-0.05,0.39c0,0,0,0,0,0c0.07,0.28,0.36,0.44,0.64,0.37c0.13-0.04,0.25-0.12,0.32-0.24
		c0.07-0.12,0.09-0.26,0.05-0.39c-0.04-0.13-0.12-0.25-0.24-0.32C50.15,12.16,50.06,12.14,49.97,12.14z"/>
</g>
<g>
	<path class="st0" d="M66.85,15.45c-1.15,0-2.11-0.37-2.44-2.12c-0.04-0.19,0.09-0.38,0.28-0.41c0.19-0.04,0.38,0.09,0.41,0.28
		c0.28,1.48,0.98,1.66,2.55,1.5c0.2-0.02,0.37,0.12,0.39,0.32c0.02,0.19-0.12,0.37-0.32,0.39C67.43,15.42,67.13,15.45,66.85,15.45z"
		/>
</g>
<g>
	<path class="st0" d="M68.73,16.27c-0.35,0-0.69-0.15-0.94-0.43c-0.21-0.25-0.32-0.57-0.29-0.89c0.03-0.33,0.18-0.62,0.43-0.84
		c0.52-0.44,1.29-0.38,1.73,0.14c0.44,0.52,0.38,1.29-0.14,1.73C69.29,16.17,69.01,16.27,68.73,16.27z M68.73,14.52
		c-0.12,0-0.24,0.04-0.34,0.12c-0.11,0.09-0.17,0.22-0.18,0.35c-0.01,0.14,0.03,0.27,0.12,0.38c0.19,0.22,0.52,0.24,0.73,0.06
		c0.22-0.19,0.24-0.52,0.06-0.73C69.02,14.58,68.87,14.52,68.73,14.52z"/>
</g>
<g>
	<path class="st0" d="M46.95,11.82c-0.21,0-0.42-0.06-0.61-0.17c-0.28-0.16-0.49-0.43-0.57-0.75l0,0c-0.08-0.32-0.04-0.65,0.12-0.93
		c0.16-0.28,0.43-0.49,0.75-0.57c0.65-0.17,1.33,0.22,1.5,0.87c0.17,0.65-0.22,1.33-0.87,1.5C47.16,11.8,47.05,11.82,46.95,11.82z
		 M46.95,10.07c-0.04,0-0.09,0.01-0.13,0.02c-0.13,0.04-0.25,0.12-0.32,0.24c-0.07,0.12-0.09,0.26-0.05,0.39l0,0
		c0.04,0.13,0.12,0.25,0.24,0.32c0.12,0.07,0.26,0.09,0.39,0.05c0.28-0.07,0.44-0.36,0.37-0.64C47.39,10.22,47.18,10.07,46.95,10.07
		z"/>
</g>
<g>
	<path class="st0" d="M37.88,19.02c-0.09,0-0.18-0.01-0.27-0.02c-0.63-0.09-1.16-0.49-1.49-1.12c-0.74-1.38-0.69-3.32,0.12-4.93l0,0
		c1.18-2.35,2.29-5.18,2.3-5.21c0.05-0.13,0.16-0.21,0.3-0.22c0.13-0.01,0.26,0.05,0.33,0.17c0.09,0.15,2.23,3.66,1.86,6.75
		c-0.14,1.18-0.53,2.82-1.61,3.91C38.97,18.78,38.43,19.02,37.88,19.02z M36.87,13.27c-0.71,1.42-0.76,3.1-0.13,4.28
		c0.23,0.42,0.57,0.69,0.97,0.75c0.41,0.06,0.85-0.11,1.2-0.46c0.94-0.94,1.29-2.42,1.41-3.49c0.25-2.11-0.83-4.53-1.41-5.65
		C38.51,9.69,37.7,11.6,36.87,13.27L36.87,13.27z"/>
</g>
<g>
	<path class="st2" d="M23.74,32.08l-0.72,2.4h-0.37c0.03-0.11,0.06-0.19,0.07-0.24c0.07-0.24,0.11-0.44,0.11-0.6
		c0-0.23-0.1-0.37-0.29-0.43c-0.19-0.06-0.65-0.09-1.38-0.09h-1.53l-0.14,0.43c-0.56,1.81-1.19,3.31-1.88,4.52
		c-0.69,1.21-1.55,2.31-2.59,3.31c-1.06,1.03-2.26,1.83-3.6,2.41c-1.34,0.58-2.67,0.87-4,0.87c-1.49,0-2.84-0.32-4.04-0.96
		c-1.07-0.56-1.9-1.36-2.5-2.39C0.3,40.29,0,39.14,0,37.88c0-1.67,0.53-3,1.58-4.01c1.06-1,2.46-1.5,4.21-1.5
		c1.97,0,4.07,0.91,6.3,2.72c0.74,0.6,1.77,1.58,3.09,2.93l0.31,0.31c0.33-0.56,0.5-1.16,0.5-1.78c0-0.97-0.42-1.77-1.27-2.41
		c-0.84-0.64-1.95-0.99-3.33-1.07c0.17-0.29,0.3-0.6,0.39-0.96l7.06-0.03c0.05-0.17,0.09-0.3,0.12-0.39
		c0.29-1.01,0.53-1.74,0.72-2.18c0.19-0.44,0.42-0.85,0.72-1.22c0.54-0.7,1.29-1.37,2.24-2c0.97-0.64,1.79-0.97,2.47-0.97
		c0.13,0,0.3,0.02,0.51,0.06c-0.09,0.5-0.28,1.28-0.59,2.31l-0.07,0.25H24.6c0.12-0.42,0.18-0.72,0.18-0.9
		c0-0.42-0.23-0.64-0.69-0.64c-0.71,0-1.4,0.27-2.07,0.8c-0.35,0.29-0.63,0.63-0.83,1.04s-0.47,1.18-0.81,2.31l-0.38,1.29
		l-0.07,0.24H23.74z M18.57,33.13l-4.55-0.03c0.7,0.32,1.28,0.79,1.71,1.4c0.44,0.61,0.66,1.26,0.66,1.93c0,1.04-0.39,2.2-1.17,3.47
		c-1.89-2.23-3.72-3.94-5.5-5.13c-1.78-1.19-3.4-1.78-4.85-1.78c-1.26,0-2.31,0.41-3.13,1.23c-0.83,0.82-1.24,1.85-1.24,3.1
		c0,1.9,0.74,3.46,2.21,4.69c1.47,1.23,3.35,1.84,5.62,1.84c2.53,0,4.67-0.92,6.43-2.75C16.52,39.25,17.79,36.6,18.57,33.13z"/>
	<path class="st2" d="M28.71,25.7c0,0.81-0.54,2.43-1.61,4.87c-1.87,4.24-2.82,6.71-2.85,7.39c-0.01,0.3,0.11,0.44,0.36,0.43
		c0.19-0.01,0.53-0.2,1.03-0.59l0.12-0.09l0.19,0.26c-1.07,0.94-1.85,1.4-2.35,1.4c-0.4,0-0.6-0.28-0.6-0.84
		c0-0.43,0.14-1.04,0.41-1.81c0.28-0.78,0.93-2.41,1.98-4.91l0.95-2.27c0.57-1.36,0.86-2.16,0.86-2.38c0-0.18-0.1-0.27-0.31-0.27
		c-0.07,0-0.25,0.04-0.53,0.13c-0.03,0.01-0.08,0.03-0.15,0.05l-0.1-0.29l0.15-0.06C27.39,26.28,28.21,25.94,28.71,25.7z"/>
	<path class="st2" d="M33.49,32.04c-0.35-0.03-0.64-0.05-0.88-0.05c-1.75,0-3.09,0.67-4.02,2.01c-0.37,0.53-0.67,1.14-0.93,1.83
		c-0.25,0.69-0.38,1.26-0.38,1.73c0,0.33,0.09,0.59,0.28,0.8s0.43,0.31,0.72,0.31c0.69,0,1.45-0.55,2.29-1.66
		c0.84-1.11,1.26-2.13,1.26-3.05c0-0.21-0.05-0.38-0.16-0.52c-0.11-0.14-0.24-0.21-0.39-0.21c-0.53,0-1.04,0.53-1.52,1.59
		c-0.03-0.13-0.05-0.25-0.05-0.35c0-0.41,0.26-0.84,0.77-1.3c0.51-0.45,1-0.68,1.45-0.68c0.31,0,0.56,0.12,0.78,0.37
		c0.21,0.25,0.32,0.55,0.32,0.91c0,1.2-0.77,2.48-2.3,3.83c-1.32,1.17-2.41,1.75-3.28,1.75c-0.38,0-0.69-0.14-0.94-0.41
		c-0.25-0.27-0.37-0.61-0.37-1.03c0-0.91,0.32-1.86,0.95-2.85c0.63-0.99,1.47-1.85,2.51-2.57c0.57-0.39,1.19-0.71,1.87-0.97
		c0.67-0.25,1.25-0.38,1.72-0.38c0.29,0,0.44,0.13,0.44,0.39C33.62,31.65,33.57,31.82,33.49,32.04z"/>
	<path class="st2" d="M39.83,31.16l-0.36,1.01c-0.25-0.05-0.47-0.08-0.67-0.08c-0.77,0-1.59,0.59-2.47,1.77
		c-0.41,0.56-0.77,1.18-1.06,1.84c-0.3,0.66-0.66,1.68-1.1,3.04l-0.11,0.34c-0.43,0.09-0.84,0.21-1.24,0.34l0.11-0.3l0.88-2.33
		c0.83-2.25,1.25-3.57,1.25-3.97c0-0.21-0.09-0.31-0.27-0.31c-0.1,0-0.32,0.09-0.67,0.27L34,32.47c0.93-0.45,1.76-0.95,2.5-1.5
		c0.03,0.12,0.04,0.23,0.04,0.33c0,0.51-0.23,1.37-0.69,2.56l0.24-0.28c1.55-1.7,2.64-2.55,3.29-2.55
		C39.52,31.03,39.67,31.07,39.83,31.16z"/>
	<path class="st2" d="M42.13,30.88v0.11c0,0.62-0.41,1.86-1.24,3.71l-0.74,1.67c-0.39,0.9-0.59,1.44-0.61,1.64
		c-0.01,0.21,0.11,0.3,0.34,0.29c0.13-0.01,0.35-0.08,0.66-0.21l0.13,0.29c-1.04,0.5-1.88,0.85-2.5,1.07
		c0.03-0.62,0.13-1.2,0.3-1.73c0.17-0.53,0.54-1.4,1.1-2.63c0.72-1.57,1.08-2.48,1.1-2.75c0.01-0.21-0.07-0.31-0.26-0.31
		c-0.09,0-0.2,0.02-0.34,0.07l-0.42,0.15c-0.03,0.01-0.09,0.03-0.19,0.07L39.37,32l0.21-0.07c0.74-0.27,1.49-0.58,2.25-0.92
		L42.13,30.88z M42.7,28.33c0.31,0,0.46,0.15,0.46,0.46c0,0.17-0.07,0.33-0.2,0.47c-0.14,0.14-0.29,0.21-0.46,0.21
		c-0.31,0-0.47-0.15-0.47-0.46c0-0.17,0.07-0.33,0.2-0.47C42.37,28.4,42.52,28.33,42.7,28.33z"/>
	<path class="st2" d="M47.68,31.14l-0.11,0.19l-0.49,0.82c-0.17,0.29-0.36,0.58-0.55,0.88l-0.11,0.16l-0.25-0.17
		c0.03-0.07,0.06-0.13,0.07-0.16c0.14-0.29,0.21-0.49,0.21-0.61c0-0.25-0.22-0.38-0.67-0.38c-0.41,0-0.76,0.15-1.07,0.45
		c-0.31,0.3-0.46,0.65-0.46,1.05c0,0.21,0.07,0.46,0.2,0.76l0.48,1.03c0.16,0.35,0.24,0.72,0.24,1.14c0,0.8-0.44,1.56-1.33,2.28
		c-0.76,0.62-1.44,0.93-2.03,0.93c-0.34,0-0.62-0.08-0.84-0.25s-0.33-0.39-0.33-0.65c0-0.31,0.08-0.61,0.24-0.91
		c0.41,0.7,0.92,1.06,1.53,1.06c0.48,0,0.91-0.17,1.29-0.5c0.37-0.33,0.56-0.72,0.56-1.16c0-0.23-0.07-0.5-0.2-0.8L43.48,35
		c-0.11-0.25-0.17-0.53-0.17-0.84c0-0.55,0.31-1.17,0.92-1.85c0.41-0.45,0.82-0.77,1.23-0.95c0.41-0.18,0.92-0.27,1.54-0.27
		C47.24,31.09,47.46,31.1,47.68,31.14z"/>
	<path class="st2" d="M64.5,24.6l0.28,0.26c-0.28,0.31-0.46,0.6-0.55,0.87c-0.09,0.27-0.13,0.67-0.13,1.23
		c0,2.26,0.5,4.97,1.51,8.13c0.56,1.75,1.01,2.63,1.33,2.63c0.15,0,0.4-0.18,0.74-0.53l0.25,0.24l-0.12,0.13
		c-0.57,0.61-1.09,1.2-1.56,1.77l-0.2,0.25c-0.84-1.75-1.55-3.65-2.12-5.71c-0.57-2.06-0.85-3.74-0.85-5.03
		c0-0.54,0.04-1.17,0.12-1.87l0.03-0.27c-0.53,0.55-1.35,1.51-2.44,2.89c-0.68,0.86-1.3,1.6-1.85,2.22l-0.23,0.26
		c0.37-0.03,0.77-0.04,1.23-0.04l2.9,0.05l0.41,0.02c-0.24,0.66-0.47,1.49-0.7,2.47h-0.38c0.09-0.36,0.14-0.64,0.14-0.84
		c0-0.25-0.09-0.42-0.26-0.5c-0.17-0.08-0.53-0.12-1.07-0.12h-1.44l-1.62,0.03l-0.2,0.01l-0.26,0.26c-1.43,1.39-2.4,2.31-2.9,2.73
		c-0.5,0.43-1.24,0.96-2.21,1.6l-0.28,0.19c0.47-0.04,0.98-0.06,1.52-0.06c1.26,0,2.22,0.04,2.88,0.12l1.87,0.21
		c0.5,0.06,0.95,0.09,1.35,0.09c1.03,0,1.85-0.27,2.47-0.8c0.61-0.53,0.99-1.31,1.14-2.33c0.25,0.15,0.37,0.34,0.37,0.57
		c0,0.57-0.38,1.23-1.15,1.96c-1.19,1.14-2.48,1.71-3.88,1.71c-0.46,0-1.1-0.04-1.91-0.13c-1.97-0.21-3.52-0.31-4.64-0.31
		l-2.09,0.05H49.8l0.63-1.01c1.75-0.64,3.38-1.63,4.87-2.98c1.49-1.35,3.6-3.72,6.33-7.11C62.93,26.29,63.89,25.19,64.5,24.6z"/>
	<path class="st2" d="M78.03,37.9l0.16,0.26c-0.7,0.5-1.54,0.92-2.51,1.24c0.11-1.45,0.79-3.46,2.04-6.04l0.29-0.62
		c0.05-0.1,0.08-0.18,0.08-0.25c0-0.16-0.07-0.24-0.21-0.24c-0.29,0-0.85,0.43-1.69,1.28c-0.61,0.61-1.19,1.39-1.73,2.34
		c-0.54,0.95-0.98,1.94-1.32,2.97c-0.39,0.1-0.86,0.29-1.4,0.56l0.11-0.28l0.6-1.46c0.44-1.08,0.84-2.15,1.2-3.21
		c0.36-1.06,0.54-1.7,0.54-1.92c0-0.19-0.09-0.29-0.27-0.29c-0.23,0-0.6,0.27-1.13,0.8c-0.52,0.53-1.01,1.15-1.46,1.84
		c-0.78,1.21-1.46,2.55-2.04,4.02c-0.09,0.03-0.14,0.04-0.15,0.05l-0.53,0.19c-0.21,0.07-0.43,0.16-0.66,0.25
		c0.16-0.34,0.47-1.07,0.94-2.19l0.78-1.87c0.58-1.42,0.89-2.31,0.91-2.66c0.01-0.24-0.08-0.36-0.29-0.36
		c-0.13,0-0.33,0.06-0.6,0.18l-0.12-0.32c0.58-0.23,1.32-0.62,2.23-1.19l0.22-0.14c0.02,0.15,0.03,0.28,0.03,0.39
		c0,0.56-0.35,1.69-1.04,3.37c1.85-2.36,3.28-3.54,4.29-3.54c0.3,0,0.45,0.16,0.45,0.48c0,0.48-0.34,1.54-1.01,3.19
		c0.76-1,1.59-1.87,2.49-2.59c0.89-0.72,1.58-1.09,2.06-1.09c0.28,0,0.42,0.14,0.42,0.42c0,0.19-0.25,0.83-0.76,1.9
		c-1.22,2.61-1.82,4.12-1.82,4.54c0,0.18,0.09,0.27,0.26,0.27C77.5,38.17,77.72,38.08,78.03,37.9z"/>
	<path class="st2" d="M86.53,32.04c-0.35-0.03-0.64-0.05-0.88-0.05c-1.75,0-3.09,0.67-4.02,2.01c-0.37,0.53-0.67,1.14-0.93,1.83
		c-0.25,0.69-0.38,1.26-0.38,1.73c0,0.33,0.09,0.59,0.28,0.8s0.43,0.31,0.72,0.31c0.69,0,1.45-0.55,2.29-1.66
		c0.84-1.11,1.26-2.13,1.26-3.05c0-0.21-0.05-0.38-0.16-0.52c-0.11-0.14-0.24-0.21-0.39-0.21c-0.53,0-1.04,0.53-1.52,1.59
		c-0.03-0.13-0.05-0.25-0.05-0.35c0-0.41,0.26-0.84,0.77-1.3c0.51-0.45,1-0.68,1.45-0.68c0.31,0,0.56,0.12,0.78,0.37
		c0.21,0.25,0.32,0.55,0.32,0.91c0,1.2-0.77,2.48-2.3,3.83c-1.32,1.17-2.41,1.75-3.28,1.75c-0.38,0-0.69-0.14-0.94-0.41
		c-0.25-0.27-0.37-0.61-0.37-1.03c0-0.91,0.32-1.86,0.95-2.85c0.63-0.99,1.47-1.85,2.51-2.57c0.57-0.39,1.19-0.71,1.87-0.97
		c0.67-0.25,1.25-0.38,1.72-0.38c0.29,0,0.44,0.13,0.44,0.39C86.66,31.65,86.62,31.82,86.53,32.04z"/>
	<path class="st2" d="M92.88,31.16l-0.36,1.01c-0.25-0.05-0.47-0.08-0.67-0.08c-0.77,0-1.59,0.59-2.47,1.77
		c-0.41,0.56-0.77,1.18-1.06,1.84c-0.3,0.66-0.66,1.68-1.1,3.04l-0.11,0.34c-0.43,0.09-0.84,0.21-1.24,0.34l0.11-0.3l0.88-2.33
		c0.83-2.25,1.25-3.57,1.25-3.97c0-0.21-0.09-0.31-0.27-0.31c-0.1,0-0.32,0.09-0.67,0.27l-0.13-0.31c0.93-0.45,1.76-0.95,2.5-1.5
		c0.03,0.12,0.04,0.23,0.04,0.33c0,0.51-0.23,1.37-0.69,2.56l0.24-0.28c1.55-1.7,2.64-2.55,3.29-2.55
		C92.56,31.03,92.71,31.07,92.88,31.16z"/>
</g>
</svg>
