<?xml version="1.0" encoding="utf-8"?>
<!-- Generator: Adobe Illustrator 24.0.2, SVG Export Plug-In . SVG Version: 6.00 Build 0)  -->
<svg version="1.1" id="Layer_1" xmlns="http://www.w3.org/2000/svg" xmlns:xlink="http://www.w3.org/1999/xlink" x="0px" y="0px"
	 viewBox="0 0 101.31 48" style="enable-background:new 0 0 101.31 48;" xml:space="preserve">
<style type="text/css">
	.st0{fill:#FFFFFF;}
</style>
<g>
	<path class="st0" d="M52.86,18.01c-0.03,0-0.07-0.01-0.1-0.02c-0.52-0.26-0.84-0.65-0.94-1.16c-0.23-1.12,0.69-2.34,1.09-2.81
		c0.08-0.09,0.22-0.11,0.32-0.02c0.09,0.08,0.11,0.22,0.03,0.32c-0.75,0.88-1.12,1.79-0.99,2.43c0.07,0.36,0.31,0.65,0.7,0.85
		c0.11,0.06,0.16,0.19,0.1,0.3C53.02,17.96,52.94,18.01,52.86,18.01z"/>
</g>
<g>
	<path class="st0" d="M51.78,16.36c-0.42,0-0.86-0.26-1.24-0.75c-0.72-0.93-1.13-2.52-0.46-3.65c0.06-0.11,0.2-0.14,0.31-0.08
		c0.11,0.06,0.14,0.2,0.08,0.31c-0.55,0.92-0.21,2.32,0.43,3.14c0.34,0.44,0.73,0.65,1.04,0.56c0.12-0.04,0.24,0.03,0.28,0.15
		c0.04,0.12-0.03,0.24-0.15,0.28C51.97,16.35,51.87,16.36,51.78,16.36z"/>
</g>
<g>
	<path class="st0" d="M50.41,15.23c-0.09,0-0.17-0.05-0.21-0.14c-0.07-0.18-0.44-0.62-0.96-0.78c-0.4-0.13-0.79-0.06-1.16,0.18
		c-0.1,0.07-0.24,0.04-0.31-0.06c-0.07-0.1-0.04-0.24,0.06-0.31c0.49-0.32,1.02-0.4,1.55-0.24c0.66,0.21,1.12,0.74,1.25,1.05
		c0.05,0.12-0.01,0.25-0.13,0.29C50.47,15.22,50.44,15.23,50.41,15.23z"/>
</g>
<g>
	<path class="st0" d="M70.71,18.46c-0.05,0-0.11-0.02-0.15-0.06c-0.09-0.08-0.1-0.23-0.01-0.32c0.3-0.33,0.42-0.71,0.36-1.12
		c-0.08-0.54-0.46-0.97-0.63-1.07c-0.11-0.06-0.14-0.2-0.08-0.31c0.06-0.11,0.2-0.14,0.31-0.08c0.29,0.17,0.74,0.71,0.85,1.39
		c0.08,0.55-0.08,1.06-0.47,1.49C70.83,18.43,70.77,18.46,70.71,18.46z"/>
</g>
<g>
	<path class="st0" d="M63.65,12.08c-0.35,0-0.7-0.08-1.05-0.23c-1.13-0.51-1.49-1.91-1.45-2.95c0.06-1.71,1.39-3.08,2.55-4.29
		c0.44-0.46,0.86-0.9,1.2-1.33c0.7-0.89,1.24-1.64,1.71-2.37c0.05-0.07,0.13-0.11,0.21-0.1c0.08,0.01,0.16,0.07,0.19,0.15
		c0.09,0.25,0.17,0.5,0.23,0.71c0.6,1.99,1.14,4.31,0.51,6.48c-0.39,1.33-1.52,3.01-2.94,3.66C64.43,11.99,64.03,12.08,63.65,12.08z
		 M66.74,1.54c-0.42,0.62-0.9,1.27-1.48,2.02c-0.35,0.45-0.78,0.9-1.24,1.37c-1.17,1.21-2.37,2.46-2.43,3.99
		c-0.03,0.73,0.19,2.08,1.18,2.52c0.59,0.27,1.21,0.25,1.85-0.04c1.28-0.59,2.34-2.18,2.69-3.38c0.6-2.05,0.08-4.3-0.5-6.22
		C66.8,1.72,66.77,1.63,66.74,1.54z"/>
</g>
<g>
	<path class="st0" d="M37.87,29.17c-0.04,0-0.08-0.01-0.12-0.03c-0.11-0.07-0.14-0.2-0.07-0.31c2.71-4.33,5.29-6.9,8.9-8.85
		c3.82-2.06,8.52-3,13.06-3.9c5.62-1.12,10.94-2.17,13.77-5.25c0.08-0.09,0.23-0.1,0.32-0.01c0.09,0.08,0.1,0.23,0.01,0.32
		c-2.93,3.18-8.32,4.25-14.01,5.38c-4.51,0.9-9.17,1.82-12.93,3.86c-3.54,1.91-6.07,4.43-8.73,8.69
		C38.02,29.14,37.94,29.17,37.87,29.17z"/>
</g>
<g>
	<path class="st0" d="M62.13,16.05c0,0-0.01,0-0.01,0c-0.12-0.01-0.22-0.11-0.21-0.24c0.2-3.66,0.77-6.48,2.85-8.35
		c0.09-0.08,0.23-0.07,0.32,0.02c0.08,0.09,0.08,0.23-0.02,0.32c-1.97,1.76-2.51,4.49-2.7,8.04C62.35,15.96,62.25,16.05,62.13,16.05
		z"/>
</g>
<g>
	<path class="st0" d="M64.62,22.31c-0.01,0-0.02,0-0.03,0c-2.77-0.39-4.81-2.43-7.01-5.36c-0.07-0.1-0.05-0.24,0.04-0.31
		c0.1-0.07,0.24-0.05,0.31,0.04c2.14,2.84,4.1,4.81,6.71,5.19c0.12,0.02,0.21,0.13,0.19,0.25C64.82,22.23,64.73,22.31,64.62,22.31z"
		/>
</g>
<g>
	<path class="st0" d="M65.41,23.68c-1.3,0-2.94-0.18-3.76-0.95c-0.37-0.35-0.54-0.78-0.5-1.29c0.09-1.01,0.98-1.61,2.45-1.65
		c0.74-0.02,1.54,0.13,2.45,0.45l0,0c0.86,0.31,1.7,0.74,2.52,1.15c0.55,0.28,1.07,0.54,1.58,0.76c0.07,0.03,0.12,0.09,0.13,0.17
		c0.01,0.08-0.02,0.15-0.07,0.2c-0.74,0.66-2.89,1.01-3.14,1.05C66.78,23.62,66.15,23.68,65.41,23.68z M63.75,20.24
		c-0.04,0-0.09,0-0.13,0c-0.72,0.02-1.93,0.21-2.02,1.24c-0.03,0.37,0.08,0.67,0.36,0.92c1.06,0.99,4.07,0.88,5.05,0.72
		c0.66-0.1,1.91-0.37,2.59-0.73c-0.4-0.18-0.81-0.39-1.23-0.6c-0.8-0.41-1.63-0.82-2.47-1.13l0,0
		C65.1,20.38,64.39,20.24,63.75,20.24z"/>
</g>
<g>
	<path class="st0" d="M52.09,26.67c-0.01,0-0.02,0-0.03,0c-2.77-0.39-4.81-2.43-7.01-5.36c-0.07-0.1-0.05-0.24,0.04-0.31
		c0.1-0.07,0.24-0.05,0.31,0.04c2.14,2.84,4.1,4.81,6.71,5.19c0.12,0.02,0.21,0.13,0.19,0.25C52.29,26.59,52.2,26.67,52.09,26.67z"
		/>
</g>
<g>
	<path class="st0" d="M55.55,28.99c-1.89,0-5.84-0.31-7.36-2c-0.5-0.55-0.69-1.21-0.56-1.94c0.26-1.46,1.66-2.23,3.85-2.1
		c1.12,0.06,2.31,0.4,3.65,1.01l0,0c1.27,0.59,2.5,1.35,3.69,2.09c0.81,0.5,1.58,0.98,2.33,1.38c0.07,0.04,0.11,0.1,0.12,0.18
		c0.01,0.08-0.03,0.15-0.09,0.2c-1.22,0.9-4.74,1.15-4.88,1.16C56.12,28.98,55.86,28.99,55.55,28.99z M51.03,23.38
		c-1.14,0-2.7,0.28-2.95,1.75c-0.1,0.6,0.04,1.11,0.45,1.56c1.49,1.65,5.94,1.95,7.74,1.83c0.03,0,2.99-0.21,4.33-0.88
		c-0.65-0.37-1.31-0.78-2.01-1.21c-1.18-0.73-2.4-1.49-3.65-2.06l0,0c-1.29-0.59-2.43-0.91-3.48-0.97
		C51.33,23.39,51.18,23.38,51.03,23.38z"/>
</g>
<g>
	<path class="st0" d="M41.21,24.53c-0.1,0-0.19-0.07-0.22-0.17c-0.86-3.57-1.13-6.43,0.33-8.82c0.06-0.11,0.2-0.14,0.31-0.07
		c0.11,0.06,0.14,0.2,0.07,0.31c-1.38,2.26-1.11,5.02-0.28,8.48c0.03,0.12-0.05,0.24-0.17,0.27C41.24,24.53,41.23,24.53,41.21,24.53
		z"/>
</g>
<g>
	<g>
		<path class="st0" d="M73.52,10.89c-0.27,0-0.52-0.11-0.71-0.33c-0.54-0.6-0.68-1.96-0.35-3.54c0.45-2.13,2.48-4,2.57-4.08
			l0.17-0.15l0.15,0.17c0.05,0.06,1.31,1.49,1.02,3.52l-0.01,0.09l-0.07,0.06c-0.08,0.06-0.15,0.13-0.23,0.19l0,0
			c-0.86,0.77-1.56,1.61-1.99,2.35c-0.44,0.76-0.45,1.2-0.31,1.35l0.3,0.33l-0.44,0.05C73.59,10.88,73.56,10.89,73.52,10.89z
			 M75.16,3.44c-0.5,0.5-1.91,2.03-2.26,3.67c-0.34,1.62-0.12,2.75,0.24,3.15c0.03,0.04,0.07,0.07,0.1,0.09
			c-0.03-0.37,0.11-0.84,0.44-1.42c0.45-0.78,1.18-1.65,2.08-2.46l0,0c0.06-0.05,0.12-0.1,0.17-0.15
			C76.1,4.94,75.46,3.86,75.16,3.44z"/>
	</g>
	<g>
		<path class="st0" d="M76.47,12.51c-1.19,0-2.14-0.27-2.57-0.75c-0.22-0.25-0.31-0.54-0.24-0.85c0.01-0.05,0.03-0.11,0.05-0.17
			l0.07-0.18l0.19,0.04c0.57,0.12,1.97-0.47,3.55-1.85l0.05-0.04l0.06-0.01c0.14-0.02,0.27-0.04,0.41-0.05h0
			c2.21-0.23,3.62,1.29,3.67,1.35l0.15,0.17l-0.17,0.15c-0.09,0.08-2.15,1.92-4.32,2.14C77.07,12.49,76.76,12.51,76.47,12.51z
			 M74.09,11.06c-0.01,0.14,0.03,0.27,0.14,0.39c0.36,0.4,1.46,0.73,3.11,0.56c1.66-0.17,3.33-1.43,3.88-1.87
			c-0.41-0.37-1.56-1.21-3.13-1.05h0c-0.11,0.01-0.22,0.03-0.33,0.04C76.36,10.34,74.93,11.08,74.09,11.06z"/>
	</g>
	<g>
		<path class="st0" d="M74.12,11.06c-0.09,0-0.17-0.01-0.25-0.02c-0.18-0.04-0.33-0.12-0.43-0.23c-0.33-0.37-0.25-1.02,0.25-1.88
			c0.45-0.78,1.18-1.65,2.08-2.46c0.08-0.07,0.16-0.14,0.24-0.21c1.81-1.48,4.02-1.73,4.12-1.74l0.31-0.03l-0.06,0.3
			c-0.02,0.1-0.54,2.48-2.38,4.14c-0.04,0.04-0.08,0.07-0.13,0.11l-0.06,0.05C76.41,10.31,74.98,11.06,74.12,11.06z M79.84,5.02
			c-0.67,0.13-2.25,0.52-3.55,1.59c-0.08,0.06-0.15,0.13-0.23,0.19c-0.86,0.77-1.56,1.61-1.99,2.35c-0.44,0.76-0.45,1.2-0.31,1.35
			c0.04,0.04,0.1,0.08,0.19,0.09c0.57,0.12,1.97-0.47,3.55-1.85l0.06-0.05c0.04-0.03,0.08-0.07,0.12-0.1
			C79.03,7.38,79.64,5.72,79.84,5.02z"/>
	</g>
</g>
<g>
	<ellipse transform="matrix(0.742 -0.6704 0.6704 0.742 11.9892 52.3161)" class="st0" cx="73.97" cy="10.58" rx="0.71" ry="2.07"/>
	<path class="st0" d="M75.14,12.41c-0.17,0-0.39-0.06-0.67-0.21c-0.38-0.21-0.81-0.56-1.19-0.99c-0.74-0.82-1.32-1.9-0.84-2.33
		c0.48-0.43,1.49,0.25,2.23,1.07c0.74,0.82,1.32,1.9,0.84,2.33C75.43,12.35,75.31,12.41,75.14,12.41z M72.8,9.19
		c-0.03,0-0.06,0.01-0.07,0.02c-0.1,0.09,0.07,0.81,0.87,1.69c0.35,0.39,0.74,0.71,1.08,0.9c0.32,0.18,0.49,0.17,0.52,0.14v0
		c0.1-0.09-0.07-0.81-0.87-1.69C73.63,9.48,73.02,9.19,72.8,9.19z"/>
</g>
<g>
	<path class="st0" d="M53.69,14.41c-0.2,0-0.4-0.05-0.58-0.16c-0.27-0.15-0.45-0.4-0.53-0.7l0,0c-0.08-0.3-0.04-0.61,0.12-0.87
		c0.15-0.27,0.4-0.46,0.7-0.53c0.3-0.08,0.61-0.04,0.87,0.12c0.27,0.15,0.46,0.4,0.53,0.7c0.08,0.3,0.04,0.61-0.12,0.87
		c-0.15,0.27-0.4,0.46-0.7,0.53C53.89,14.39,53.79,14.41,53.69,14.41z M53.7,12.56c-0.06,0-0.12,0.01-0.18,0.02
		c-0.18,0.05-0.33,0.16-0.43,0.33c-0.09,0.16-0.12,0.35-0.07,0.53c0,0,0,0,0,0c0.05,0.18,0.16,0.33,0.32,0.43
		c0.16,0.09,0.35,0.12,0.53,0.07c0.18-0.05,0.33-0.16,0.43-0.33c0.09-0.16,0.12-0.35,0.07-0.53c-0.05-0.18-0.16-0.33-0.32-0.43
		C53.94,12.59,53.82,12.56,53.7,12.56z"/>
</g>
<g>
	<path class="st0" d="M71.56,16.05c-1.16,0-2.12-0.37-2.45-2.12c-0.02-0.12,0.06-0.24,0.18-0.26c0.12-0.02,0.24,0.06,0.26,0.18
		c0.32,1.68,1.14,1.88,2.86,1.7c0.12-0.01,0.23,0.08,0.25,0.2c0.01,0.12-0.08,0.23-0.2,0.25C72.15,16.02,71.85,16.05,71.56,16.05z"
		/>
</g>
<g>
	<path class="st0" d="M73.53,16.92c-0.32,0-0.65-0.14-0.87-0.4c-0.2-0.23-0.3-0.53-0.27-0.84c0.02-0.31,0.17-0.58,0.4-0.78
		c0.48-0.41,1.21-0.35,1.62,0.13c0.41,0.48,0.35,1.21-0.13,1.62C74.06,16.83,73.79,16.92,73.53,16.92z M73.53,15.07
		c-0.16,0-0.32,0.05-0.45,0.17c-0.14,0.12-0.23,0.29-0.24,0.48c-0.01,0.19,0.04,0.37,0.17,0.51c0.25,0.29,0.69,0.33,0.99,0.08
		c0.29-0.25,0.33-0.69,0.08-0.99C73.92,15.15,73.72,15.07,73.53,15.07z"/>
</g>
<g>
	<path class="st0" d="M50.5,12.21c-0.2,0-0.4-0.05-0.58-0.16c-0.27-0.15-0.46-0.4-0.53-0.7c-0.08-0.3-0.04-0.61,0.12-0.87
		c0.15-0.27,0.4-0.46,0.7-0.53c0.61-0.16,1.24,0.2,1.41,0.82c0.16,0.61-0.2,1.24-0.82,1.41C50.7,12.2,50.6,12.21,50.5,12.21z
		 M50.5,10.36c-0.06,0-0.12,0.01-0.18,0.02c-0.18,0.05-0.33,0.16-0.43,0.33c-0.09,0.16-0.12,0.35-0.07,0.53l0,0
		c0.05,0.18,0.16,0.33,0.32,0.43c0.16,0.09,0.35,0.12,0.53,0.07c0.37-0.1,0.6-0.48,0.5-0.86C51.1,10.57,50.81,10.36,50.5,10.36z"/>
</g>
<g>
	<path class="st0" d="M40.91,19.83c-0.09,0-0.18-0.01-0.26-0.02c-0.61-0.09-1.14-0.48-1.47-1.1c-0.76-1.42-0.71-3.41,0.12-5.08h0
		c1.25-2.49,2.42-5.49,2.44-5.52c0.03-0.08,0.1-0.13,0.19-0.14C42.02,7.96,42.1,8,42.14,8.07c0.1,0.15,2.33,3.82,1.95,7.04
		c-0.15,1.23-0.55,2.93-1.66,4.05C41.99,19.59,41.45,19.83,40.91,19.83z M39.71,13.83c-0.77,1.54-0.82,3.37-0.13,4.67
		c0.26,0.49,0.67,0.8,1.14,0.87c0.48,0.07,0.99-0.12,1.39-0.53c1.02-1.03,1.4-2.62,1.54-3.78c0.29-2.47-1.09-5.32-1.66-6.35
		C41.61,9.63,40.68,11.88,39.71,13.83L39.71,13.83z"/>
</g>
<g>
	<path class="st0" d="M25.97,33.79l-0.76,2.54h-0.39c0.04-0.11,0.06-0.2,0.07-0.25c0.08-0.25,0.12-0.46,0.12-0.63
		c0-0.24-0.1-0.39-0.31-0.45c-0.2-0.06-0.69-0.09-1.46-0.09h-1.62l-0.15,0.45c-0.6,1.91-1.26,3.5-1.99,4.78
		c-0.73,1.28-1.64,2.44-2.73,3.5c-1.12,1.09-2.38,1.94-3.8,2.55c-1.42,0.61-2.83,0.92-4.22,0.92c-1.58,0-3-0.34-4.27-1.01
		c-1.13-0.6-2.01-1.44-2.64-2.53c-0.63-1.09-0.95-2.3-0.95-3.63c0-1.76,0.56-3.17,1.68-4.23c1.12-1.06,2.6-1.59,4.46-1.59
		c2.08,0,4.3,0.96,6.66,2.88c0.79,0.64,1.88,1.67,3.27,3.1l0.33,0.33c0.35-0.6,0.53-1.23,0.53-1.89c0-1.03-0.45-1.88-1.34-2.55
		c-0.89-0.67-2.06-1.05-3.52-1.13c0.18-0.3,0.31-0.64,0.41-1.01l7.47-0.03c0.06-0.18,0.1-0.32,0.13-0.41
		c0.31-1.07,0.56-1.83,0.76-2.3c0.2-0.47,0.45-0.9,0.76-1.29c0.58-0.74,1.37-1.45,2.37-2.12c1.03-0.68,1.9-1.02,2.61-1.02
		c0.14,0,0.32,0.02,0.54,0.06c-0.09,0.53-0.3,1.35-0.62,2.44l-0.07,0.26h-0.39c0.13-0.45,0.19-0.77,0.19-0.95
		c0-0.45-0.24-0.67-0.73-0.67c-0.75,0-1.48,0.28-2.19,0.84c-0.37,0.3-0.66,0.67-0.87,1.1c-0.21,0.43-0.5,1.24-0.85,2.44l-0.4,1.36
		l-0.07,0.25H25.97z M20.5,34.9l-4.81-0.03c0.74,0.34,1.35,0.83,1.81,1.48c0.46,0.65,0.7,1.33,0.7,2.04c0,1.1-0.41,2.32-1.23,3.67
		c-1.99-2.36-3.93-4.17-5.82-5.43c-1.88-1.26-3.59-1.89-5.13-1.89c-1.33,0-2.44,0.43-3.31,1.3c-0.87,0.86-1.31,1.96-1.31,3.28
		c0,2.01,0.78,3.66,2.33,4.96c1.56,1.3,3.54,1.94,5.95,1.94c2.68,0,4.94-0.97,6.8-2.91C18.33,41.37,19.67,38.56,20.5,34.9z"/>
	<path class="st0" d="M31.21,27.04c0,0.86-0.57,2.57-1.71,5.15c-1.97,4.49-2.98,7.09-3.01,7.82c-0.01,0.32,0.11,0.47,0.38,0.45
		c0.2-0.01,0.57-0.21,1.09-0.62l0.13-0.09l0.2,0.27c-1.13,0.99-1.96,1.49-2.49,1.49c-0.42,0-0.63-0.29-0.63-0.88
		c0-0.46,0.15-1.1,0.44-1.92c0.29-0.82,0.99-2.55,2.09-5.19l1-2.4c0.6-1.44,0.91-2.28,0.91-2.52c0-0.19-0.11-0.28-0.33-0.28
		c-0.08,0-0.26,0.05-0.56,0.14c-0.04,0.01-0.09,0.03-0.16,0.05l-0.11-0.31l0.16-0.06C29.83,27.66,30.69,27.3,31.21,27.04z"/>
	<path class="st0" d="M36.27,33.75c-0.37-0.04-0.68-0.05-0.93-0.05c-1.85,0-3.26,0.71-4.25,2.13c-0.39,0.56-0.71,1.21-0.98,1.93
		c-0.27,0.73-0.4,1.34-0.4,1.83c0,0.34,0.1,0.63,0.3,0.85c0.2,0.22,0.45,0.33,0.76,0.33c0.73,0,1.54-0.59,2.42-1.76
		c0.88-1.17,1.33-2.25,1.33-3.22c0-0.22-0.06-0.4-0.17-0.55C34.24,35.08,34.1,35,33.94,35c-0.56,0-1.1,0.56-1.61,1.69
		c-0.04-0.14-0.05-0.26-0.05-0.37c0-0.44,0.27-0.89,0.81-1.37c0.54-0.48,1.05-0.72,1.54-0.72c0.32,0,0.6,0.13,0.82,0.4
		c0.22,0.26,0.34,0.58,0.34,0.96c0,1.27-0.81,2.62-2.43,4.05c-1.39,1.24-2.55,1.85-3.47,1.85c-0.4,0-0.73-0.14-1-0.43
		c-0.26-0.29-0.4-0.65-0.4-1.09c0-0.96,0.34-1.97,1.01-3.02c0.67-1.05,1.55-1.95,2.65-2.71c0.6-0.41,1.26-0.75,1.98-1.02
		c0.71-0.27,1.32-0.4,1.82-0.4c0.31,0,0.46,0.14,0.46,0.41C36.41,33.34,36.36,33.51,36.27,33.75z"/>
	<path class="st0" d="M42.98,32.81l-0.38,1.06c-0.27-0.06-0.5-0.08-0.71-0.08c-0.81,0-1.69,0.63-2.61,1.88
		c-0.44,0.6-0.81,1.25-1.12,1.95c-0.31,0.7-0.7,1.77-1.16,3.21l-0.12,0.36c-0.46,0.1-0.89,0.22-1.31,0.36l0.12-0.32l0.93-2.47
		c0.88-2.37,1.32-3.77,1.32-4.19c0-0.22-0.09-0.33-0.28-0.33c-0.11,0-0.34,0.09-0.71,0.28l-0.14-0.33c0.98-0.48,1.86-1.01,2.64-1.59
		c0.03,0.13,0.04,0.24,0.04,0.35c0,0.54-0.24,1.44-0.73,2.71l0.25-0.29c1.64-1.8,2.8-2.7,3.48-2.7
		C42.64,32.67,42.8,32.72,42.98,32.81z"/>
	<path class="st0" d="M45.4,32.52v0.12c0,0.66-0.44,1.97-1.31,3.92l-0.78,1.77c-0.41,0.95-0.63,1.53-0.64,1.74
		c-0.01,0.22,0.11,0.32,0.36,0.31c0.14-0.01,0.37-0.08,0.7-0.22l0.14,0.31c-1.1,0.53-1.98,0.9-2.64,1.13
		c0.04-0.66,0.14-1.27,0.32-1.83c0.18-0.56,0.57-1.48,1.16-2.78c0.76-1.66,1.14-2.63,1.16-2.91c0.01-0.22-0.08-0.33-0.27-0.33
		c-0.09,0-0.21,0.02-0.36,0.07l-0.44,0.16c-0.03,0.01-0.09,0.03-0.2,0.07l-0.11-0.34l0.22-0.07c0.78-0.29,1.57-0.61,2.38-0.97
		L45.4,32.52z M46.01,29.82c0.32,0,0.48,0.16,0.48,0.48c0,0.18-0.07,0.35-0.22,0.5c-0.14,0.15-0.31,0.22-0.49,0.22
		c-0.33,0-0.5-0.16-0.5-0.48c0-0.18,0.07-0.35,0.22-0.5C45.66,29.89,45.82,29.82,46.01,29.82z"/>
	<path class="st0" d="M51.27,32.79l-0.12,0.2l-0.52,0.86c-0.18,0.31-0.38,0.62-0.58,0.93l-0.12,0.17l-0.26-0.18
		c0.04-0.08,0.06-0.13,0.07-0.17c0.15-0.3,0.22-0.52,0.22-0.64c0-0.27-0.24-0.4-0.71-0.4c-0.43,0-0.8,0.16-1.13,0.48
		c-0.32,0.32-0.48,0.69-0.48,1.11c0,0.22,0.07,0.49,0.21,0.8l0.51,1.09c0.17,0.37,0.25,0.77,0.25,1.2c0,0.85-0.47,1.65-1.4,2.41
		c-0.81,0.65-1.52,0.98-2.15,0.98c-0.36,0-0.65-0.09-0.88-0.27c-0.23-0.18-0.35-0.41-0.35-0.69c0-0.33,0.08-0.65,0.25-0.96
		c0.44,0.74,0.98,1.12,1.62,1.12c0.51,0,0.97-0.18,1.36-0.53c0.39-0.35,0.59-0.76,0.59-1.22c0-0.25-0.07-0.53-0.21-0.84l-0.62-1.36
		c-0.12-0.27-0.18-0.56-0.18-0.88c0-0.58,0.32-1.24,0.97-1.96c0.44-0.48,0.87-0.81,1.3-1.01c0.43-0.19,0.97-0.29,1.63-0.29
		C50.81,32.74,51.05,32.75,51.27,32.79z"/>
	<path class="st0" d="M69.06,25.88l0.29,0.27c-0.29,0.33-0.49,0.64-0.58,0.92c-0.09,0.28-0.14,0.71-0.14,1.3
		c0,2.39,0.53,5.25,1.6,8.6c0.6,1.85,1.06,2.78,1.4,2.78c0.16,0,0.42-0.19,0.78-0.56l0.26,0.25l-0.13,0.14
		c-0.6,0.65-1.16,1.27-1.65,1.88l-0.21,0.26c-0.89-1.85-1.64-3.86-2.24-6.04c-0.6-2.18-0.9-3.95-0.9-5.32
		c0-0.58,0.04-1.24,0.13-1.98l0.03-0.28c-0.56,0.58-1.42,1.6-2.58,3.06c-0.72,0.91-1.38,1.69-1.96,2.35l-0.24,0.27
		c0.39-0.03,0.82-0.04,1.3-0.04l3.07,0.05l0.43,0.02c-0.25,0.7-0.5,1.57-0.74,2.61h-0.4c0.1-0.38,0.15-0.67,0.15-0.88
		c0-0.27-0.09-0.44-0.27-0.53c-0.18-0.08-0.56-0.13-1.13-0.13h-1.53l-1.72,0.03l-0.21,0.01l-0.27,0.27
		c-1.52,1.47-2.54,2.44-3.07,2.89c-0.53,0.45-1.31,1.01-2.34,1.7l-0.29,0.2c0.5-0.04,1.04-0.06,1.61-0.06
		c1.33,0,2.34,0.04,3.04,0.13l1.98,0.22c0.53,0.06,1,0.09,1.42,0.09c1.09,0,1.96-0.28,2.61-0.84c0.65-0.56,1.05-1.38,1.21-2.47
		c0.26,0.15,0.39,0.35,0.39,0.6c0,0.6-0.4,1.3-1.21,2.08c-1.26,1.21-2.62,1.81-4.1,1.81c-0.49,0-1.17-0.05-2.02-0.14
		c-2.09-0.22-3.72-0.33-4.91-0.33l-2.21,0.05h-0.2l0.66-1.06c1.85-0.67,3.57-1.72,5.15-3.15c1.58-1.43,3.81-3.93,6.69-7.52
		C67.4,27.67,68.42,26.5,69.06,25.88z"/>
	<path class="st0" d="M83.37,39.94l0.17,0.27c-0.74,0.53-1.63,0.97-2.65,1.31c0.11-1.53,0.83-3.66,2.16-6.38l0.31-0.65
		c0.06-0.11,0.08-0.19,0.08-0.26c0-0.17-0.07-0.25-0.22-0.25c-0.3,0-0.9,0.45-1.79,1.35c-0.65,0.65-1.26,1.47-1.83,2.48
		c-0.57,1-1.04,2.05-1.4,3.14c-0.41,0.11-0.91,0.3-1.49,0.59l0.12-0.29l0.63-1.55c0.46-1.14,0.88-2.28,1.26-3.39
		c0.38-1.12,0.57-1.79,0.57-2.03c0-0.2-0.09-0.31-0.28-0.31c-0.24,0-0.64,0.28-1.19,0.85c-0.55,0.57-1.07,1.21-1.55,1.94
		c-0.83,1.28-1.55,2.69-2.16,4.25c-0.09,0.03-0.14,0.05-0.16,0.05l-0.56,0.2c-0.22,0.08-0.46,0.17-0.7,0.26
		c0.17-0.36,0.5-1.13,0.99-2.32l0.82-1.98c0.62-1.5,0.94-2.44,0.96-2.81c0.01-0.25-0.09-0.38-0.31-0.38c-0.14,0-0.35,0.06-0.63,0.19
		l-0.13-0.34c0.61-0.24,1.4-0.66,2.36-1.25L77,32.46c0.02,0.16,0.03,0.3,0.03,0.41c0,0.6-0.37,1.78-1.1,3.56
		c1.95-2.49,3.47-3.74,4.54-3.74c0.32,0,0.47,0.17,0.47,0.51c0,0.51-0.35,1.63-1.06,3.37c0.81-1.06,1.68-1.97,2.63-2.74
		c0.94-0.77,1.67-1.15,2.18-1.15c0.29,0,0.44,0.15,0.44,0.44c0,0.2-0.27,0.87-0.8,2.01c-1.29,2.76-1.93,4.36-1.93,4.8
		c0,0.19,0.09,0.28,0.27,0.28C82.81,40.23,83.04,40.13,83.37,39.94z"/>
	<path class="st0" d="M92.36,33.75c-0.37-0.04-0.68-0.05-0.93-0.05c-1.85,0-3.26,0.71-4.25,2.13c-0.39,0.56-0.71,1.21-0.98,1.93
		c-0.27,0.73-0.4,1.34-0.4,1.83c0,0.34,0.1,0.63,0.3,0.85c0.2,0.22,0.45,0.33,0.76,0.33c0.73,0,1.54-0.59,2.42-1.76
		c0.88-1.17,1.33-2.25,1.33-3.22c0-0.22-0.06-0.4-0.17-0.55C90.33,35.08,90.19,35,90.03,35c-0.56,0-1.1,0.56-1.61,1.69
		c-0.04-0.14-0.05-0.26-0.05-0.37c0-0.44,0.27-0.89,0.81-1.37c0.54-0.48,1.05-0.72,1.54-0.72c0.32,0,0.6,0.13,0.82,0.4
		c0.22,0.26,0.34,0.58,0.34,0.96c0,1.27-0.81,2.62-2.43,4.05c-1.39,1.24-2.55,1.85-3.47,1.85c-0.4,0-0.73-0.14-1-0.43
		c-0.26-0.29-0.4-0.65-0.4-1.09c0-0.96,0.34-1.97,1.01-3.02c0.67-1.05,1.55-1.95,2.65-2.71c0.6-0.41,1.26-0.75,1.98-1.02
		c0.71-0.27,1.32-0.4,1.82-0.4c0.31,0,0.46,0.14,0.46,0.41C92.49,33.34,92.45,33.51,92.36,33.75z"/>
	<path class="st0" d="M99.07,32.81l-0.38,1.06c-0.27-0.06-0.5-0.08-0.71-0.08c-0.81,0-1.69,0.63-2.61,1.88
		c-0.44,0.6-0.81,1.25-1.12,1.95c-0.31,0.7-0.7,1.77-1.16,3.21l-0.12,0.36c-0.46,0.1-0.89,0.22-1.31,0.36l0.12-0.32l0.93-2.47
		c0.88-2.37,1.32-3.77,1.32-4.19c0-0.22-0.09-0.33-0.28-0.33c-0.11,0-0.34,0.09-0.71,0.28l-0.14-0.33c0.98-0.48,1.86-1.01,2.64-1.59
		c0.03,0.13,0.04,0.24,0.04,0.35c0,0.54-0.24,1.44-0.73,2.71l0.25-0.29c1.64-1.8,2.8-2.7,3.48-2.7
		C98.73,32.67,98.89,32.72,99.07,32.81z"/>
</g>
</svg>
